<?xml version="1.0" standalone="no"?>
<!DOCTYPE svg PUBLIC "-//W3C//DTD SVG 20010904//EN"
 "http://www.w3.org/TR/2001/REC-SVG-20010904/DTD/svg10.dtd">
<svg version="1.0" xmlns="http://www.w3.org/2000/svg"
 width="512.000000pt" height="512.000000pt" viewBox="0 0 512.000000 512.000000"
 preserveAspectRatio="xMidYMid meet">

<g transform="translate(0.000000,512.000000) scale(0.100000,-0.100000)"
fill="#000000" stroke="none">
<path d="M2910 5097 c-30 -16 -51 -37 -67 -67 -23 -43 -23 -45 -23 -445 0
-400 0 -402 23 -445 61 -116 228 -115 288 1 19 38 20 56 17 457 l-3 417 -24
34 c-27 38 -90 70 -137 71 -17 0 -50 -10 -74 -23z"/>
<path d="M1891 4750 c-74 -17 -123 -81 -123 -159 0 -26 7 -61 15 -77 9 -16
143 -156 299 -311 250 -249 288 -283 328 -293 119 -32 232 81 200 200 -10 40
-44 78 -293 328 -155 156 -293 289 -307 296 -36 19 -80 24 -119 16z"/>
<path d="M4025 4755 c-5 -2 -23 -6 -40 -10 -22 -5 -107 -84 -308 -283 -153
-152 -287 -292 -299 -310 -25 -40 -27 -116 -4 -159 34 -67 114 -102 189 -83
36 10 80 50 334 303 253 254 293 298 303 335 19 72 -16 154 -78 186 -29 14
-81 25 -97 21z"/>
<path d="M345 4076 c-62 -27 -101 -102 -90 -174 8 -55 62 -117 113 -132 21 -5
159 -10 319 -10 l282 0 10 -37 c6 -21 152 -582 325 -1248 173 -665 320 -1223
326 -1240 16 -42 39 -65 85 -86 38 -18 98 -19 1270 -19 l1231 0 44 23 c25 12
54 36 65 52 31 47 549 2048 541 2090 -9 45 -44 95 -86 119 -35 21 -41 21
-1710 24 l-1675 2 -70 272 c-39 152 -79 285 -90 302 -11 17 -36 41 -54 53 -34
23 -35 23 -420 23 -298 -1 -393 -4 -416 -14z m4125 -1043 c-10 -38 -100 -383
-200 -768 -100 -385 -188 -724 -196 -752 l-15 -53 -1074 0 c-1014 0 -1074 1
-1079 18 -18 59 -416 1600 -416 1610 0 9 344 12 1499 12 l1500 0 -19 -67z"/>
<path d="M2390 2798 c-52 -27 -90 -84 -90 -138 0 -55 69 -719 80 -775 12 -57
32 -84 81 -114 70 -43 176 -16 219 55 30 48 30 69 -15 499 -40 394 -48 427
-109 465 -53 32 -113 35 -166 8z"/>
<path d="M3456 2810 c-41 -13 -95 -68 -106 -110 -12 -46 -80 -709 -80 -778 0
-72 23 -117 75 -147 51 -31 111 -32 164 -5 75 38 78 47 122 467 22 208 38 401
36 429 -8 108 -106 175 -211 144z"/>
<path d="M2040 1019 c-175 -29 -346 -182 -400 -357 -24 -76 -26 -202 -6 -277
62 -234 288 -398 526 -382 321 22 545 330 464 639 -48 188 -223 347 -414 378
-74 11 -93 11 -170 -1z m168 -343 c92 -48 126 -150 81 -244 -64 -131 -253
-132 -319 -1 -42 81 -13 188 63 234 49 29 131 34 175 11z"/>
<path d="M3751 1019 c-87 -15 -194 -72 -265 -142 -212 -208 -207 -537 12 -738
206 -190 510 -182 707 18 99 100 145 212 145 354 0 203 -104 371 -285 460
-110 53 -198 67 -314 48z m183 -353 c141 -82 99 -304 -63 -331 -104 -17 -211
71 -211 175 0 36 23 96 48 124 55 61 152 75 226 32z"/>
</g>
</svg>
